{"title":"Live &amp; Swingin - The Ultimate Rat Pack Collection - [EAC- Mp3@32","uid":5284349,"size":1017699988,"categoryP":"audio","categoryS":"music","magnet":"?xt=urn:btih:913b80c8c39e5ebab6eccd18d904af6992c4d5c8&amp;dn=Live+%26+Swingin+-+The+Ultimate+Rat+Pack+Collection+-+%5BEAC-+Mp3%4032&amp;tr=udp%3A%2F%2Ftracker.openbittorrent.com%3A80&amp;tr=udp%3A%2F%2Fopen.demonii.com%3A1337&amp;tr=udp%3A%2F%2Ftracker.coppersurfer.tk%3A6969&amp;tr=udp%3A%2F%2Fexodus.desync.com%3A6969","seeders":2,"leechers":0,"uploader":null,"files":32,"time":1263661016,"description":"Live &amp; Swingin - The Ultimate Rat Pack Collection - [EAC- Mp3@320 kps]+[ Dvd RIP]\n\nCD TRACKLIST\n\n01.Matty Malneck / FanFare &amp; Introduction 00:43\n02.Dean Martin / Medley: Drink To Me Only With Thine Eyes - WhenYou're Smiling - The Lady Is A Tramp 03:52\n03.Dean Martin / I Left My Heart In San Francisco 03:18\n04.Dean Martin / I'm Gonna Sit Right Down And Write Myself A Letter 01:46\n05.Dean Martin / Medley: Volare - On An Evening In Roma 02:30\n06.Frank Sinatra / Goody Goody 01:34\n07.Frank Sinatra / Chicago 02:08\n08.Frank Sinatra / When Your Lover Has Gone 02:35\n09.Frank Sinatra / Monologue 01:16\n10.Frank Sinatra / Please Be Kind 02:45\n11.Frank Sinatra / You're Nobody Till Somebody Loves You 03:13\n12.Sammy Davis Jr. / What Kind Of Fool Am I 03:01\n13.Sammy Davis Jr. / Out Of This World 03:36\n14.Sammy Davis Jr. / She's Funny That Way 01:56\n15.Sammy Davis Jr. / Hey There 01:46\n16.Frank Sinatra &amp; Dean Martin / Comedy 04:09\n17.Frank Sinatra &amp; Dean Martin / Medley 1 05:09\n18.Frank Sinatra &amp; Dean Martin / Medley 2 08:35\n19.Frank Sinatra, Dean Martin &amp; Sammy Davis Jr. / Impressions 02:15\n20.Frank Sinatra, Dean Martin &amp; Sammy Davis Jr. / Birth Of The Blues 02:22\n21.Frank Sinatra, Dean Martin &amp; Sammy Davis Jr. / Danny Thomas Introduction 01:03\n22.Frank Sinatra / Nancy (With The Laughing Face) 02:29\n23.Frank Sinatra &amp; Sammy Davis Jr. / Me And My Shadow 02:30\n24.Dean Martin &amp; Sammy Davis Jr. / Sam's Song 02:43\n25.Frank Sinatra, Dean Martin &amp; Sammy Davis Jr. / Birth Of The BlueS 01:30\n\nvideo info\n\nGeneral\nComplete name : FSS.divx\nFormat : DivX\nFormat/Info : Hack of AVI\nFile size : 813 MiB\nDuration : 1h 30mn\nOverall bit rate : 1 261 Kbps\n\nVideo\nID : 0\nFormat : MPEG-4 Visual\nFormat settings, BVOP : Yes\nFormat settings, QPel : No\nFormat settings, GMC : No warppoints\nFormat settings, Matrix : Default (H.263)\nMuxing mode : Packed bitstream\nCodec ID : DX50\nCodec ID/Hint : DivX 5\nDuration : 1h 30mn\nBit rate : 1 061 Kbps\nWidth : 672 pixels\nHeight : 384 pixels\nDisplay aspect ratio : 16/9\nFrame rate : 25.000 fps\nResolution : 24 bits\nColorimetry : 4:2:0\nScan type : Progressive\nBits/(Pixel*Frame) : 0.164\nStream size : 684 MiB (84%)\nTitle : Video\nWriting library : DivX 6.8.2 (UTC 2008-05-17)\n\nAudio\nID : 1\nFormat : AC-3\nFormat/Info : Audio Coding 3\nCodec ID : 2000\nDuration : 1h 29mn\nBit rate mode : Constant\nBit rate : 192 Kbps\nChannel(s) : 2 channels\nChannel positions : L R\nSampling rate : 48.0 KHz\nStream size : 123 MiB (15%)\nAlignment : Split accross interleaves\nInterleave, duration : 40 ms (1.01 video frame)\nInterleave, preload duration : 500 ms\nTitle : Audio","torrent":{"xt":"urn:btih:913b80c8c39e5ebab6eccd18d904af6992c4d5c8","amp;dn":"Live+%26+Swingin+-+The+Ultimate+Rat+Pack+Collection+-+%5BEAC-+Mp3%4032","amp;tr":["udp%3A%2F%2Ftracker.openbittorrent.com%3A80","udp%3A%2F%2Fopen.demonii.com%3A1337","udp%3A%2F%2Ftracker.coppersurfer.tk%3A6969","udp%3A%2F%2Fexodus.desync.com%3A6969"],"infoHash":"913b80c8c39e5ebab6eccd18d904af6992c4d5c8","infoHashBuffer":{"type":"Buffer","data":[145,59,128,200,195,158,94,186,182,236,205,24,217,4,175,105,146,196,213,200]},"announce":[],"urlList":[]}}